<?xml version="1.0" encoding="iso-8859-1"?>
<!DOCTYPE svg PUBLIC "-//W3C//DTD SVG 1.1//EN" "http://www.w3.org/Graphics/SVG/1.1/DTD/svg11.dtd">
<svg id="GTmetrixIcon" data-name="GTmetrixIcon" xmlns="http://www.w3.org/2000/svg" xmlns:xlink="http://www.w3.org/1999/xlink" viewBox="0 0 480 480">
  <defs>
    <style>
      .gtmetrix-icon-cls-1 {
        fill: url(#GTmetrixIcon-linear-gradient);
      }

      .gtmetrix-icon-cls-2 {
        fill: #fff;
      }
    </style>
    <linearGradient id="GTmetrixIcon-linear-gradient" x1="70.29" y1="70.29" x2="409.71" y2="409.71" gradientUnits="userSpaceOnUse">
      <stop offset="0" stop-color="#2afadf"/>
      <stop offset="1" stop-color="#4c83ff"/>
    </linearGradient>
  </defs>
  <title>gtmetrix</title>
  <circle class="gtmetrix-icon-cls-1" cx="240" cy="240" r="240"/>
  <path class="gtmetrix-icon-cls-2" d="M274.56,186.85a7.14,7.14,0,0,0-9.14,4.3l-22.77,63.26a28.56,28.56,0,1,0,13.44,4.84L278.86,196a7.14,7.14,0,0,0-4.3-9.14ZM240,297.14a14.29,14.29,0,1,1,14.29-14.29A14.3,14.3,0,0,1,240,297.14ZM240,140A128.61,128.61,0,0,0,126.27,328.58,21.44,21.44,0,0,0,145.22,340H334.78a21.44,21.44,0,0,0,19-11.42A128.61,128.61,0,0,0,240,140ZM341.1,321.91a7.14,7.14,0,0,1-6.32,3.81H145.22a7.14,7.14,0,0,1-6.32-3.81,114.29,114.29,0,1,1,202.2,0Z"/>
</svg>
