<?xml version="1.0" encoding="utf-8"?>
<!-- Generator: Adobe Illustrator 22.0.1, SVG Export Plug-In . SVG Version: 6.00 Build 0)  -->
<svg version="1.1" id="Layer_1" xmlns="http://www.w3.org/2000/svg" xmlns:xlink="http://www.w3.org/1999/xlink" x="0px" y="0px"
	 viewBox="0 0 576 512" style="enable-background:new 0 0 576 512;" xml:space="preserve">
<path d="M506,48.7c-1.1-5.3-5.3-9.5-10.7-10.7c-28.2-6-50.2-6-72.2-6c-90.3,0-144.5,48.3-184.9,112H147c-15.9,0-30.5,9-37.5,23.2
	l-43.2,86.4c-7,14,3.2,30.4,18.8,30.4h83.2c-5.2,11.2-10.4,22.3-15.8,33c-2.7,5.4-1.7,11.9,2.6,16.2l55.7,55.6
	c4.3,4.3,10.8,5.3,16.2,2.6c10.7-5.3,21.8-10.5,33-15.7V459c0,15.6,16.5,25.7,30.4,18.8l86.4-43.2C391,427.5,400,412.9,400,397
	v-91.3c63.5-40.5,112-94.8,112-184.7C512.1,98.9,512.1,76.9,506,48.7L506,48.7z M414,172c-23.2,0-42-18.8-42-42s18.8-42,42-42
	c23.2,0,42,18.8,42,42S437.2,172,414,172z"/>
</svg>
