<?xml version="1.0" encoding="iso-8859-1"?>
<svg xmlns="http://www.w3.org/2000/svg" viewBox="0 0 480 480">
  <defs>
    <style>
      .gtmetrix-cls-1 { fill: #0b62cd; }
      .gtmetrix-cls-2 { fill: #fff; }
    </style>
  </defs>
  <title>gtmetrix-icon</title>
  <circle class="gtmetrix-cls-1" cx="240" cy="240" r="240"/>
  <path class="gtmetrix-cls-2" d="M360,214.93h-90.4l36.54-37.6c-36.4-36-95.34-37.33-131.74-1.33a91.66,91.66,0,0,0,0,130.53,93.59,93.59,0,0,0,131.74,0c18.13-17.86,27.2-38.8,27.2-65.2H360c0,26.4-11.73,60.67-35.2,83.87-46.8,46.4-122.8,46.4-169.6,0s-47.06-121.47-.26-167.73a119.82,119.82,0,0,1,168.66,0L360,120ZM246.66,186.67v56.66l46.67,27.74-9.6,16.13-57.07-33.87V186.67Z"/>
</svg>
