<?xml version="1.0" encoding="iso-8859-1"?>
<svg xmlns="http://www.w3.org/2000/svg" viewBox="0 0 480 480">
  <title>icon-mask</title>
  <path d="M240,0C107.45,0,0,107.45,0,240S107.45,480,240,480,480,372.55,480,240,372.55,0,240,0ZM360,214.93h-90.4l36.54-37.6c-36.4-36-95.34-37.33-131.74-1.33a91.66,91.66,0,0,0,0,130.53,93.59,93.59,0,0,0,131.74,0c18.13-17.86,27.2-38.8,27.2-65.2H360c0,26.4-11.73,60.67-35.2,83.87-46.8,46.4-122.8,46.4-169.6,0s-47.06-121.47-.26-167.73a119.82,119.82,0,0,1,168.66,0L360,120Zm-66.66,56.14-9.6,16.13-57.07-33.87V186.67h20v56.66Z"/>
</svg>
