<?xml version="1.0" encoding="iso-8859-1"?>
<svg xmlns="http://www.w3.org/2000/svg" viewBox="0 0 480 480">
  <title>gtmetrix-icon-mask</title>
  <path d="M480,189.86H299.22l73.07-75.2C299.5,42.66,181.64,40,108.85,112,36.77,183.09,36,299.16,107,371.25c.6.61,1.21,1.21,1.82,1.81a187.13,187.13,0,0,0,263.44,0c36.26-35.72,54.4-77.6,54.4-130.4H480c0,52.8-23.46,121.34-70.39,167.74C316,503.2,164,503.2,70.45,410.4s-94.11-242.94-.52-335.46c93.39-92.54,243.89-92.54,337.28,0L480,0ZM253.35,133.34V246.66l93.33,55.48-19.2,32.26L213.35,266.66V133.34Z"/>
</svg>
